<mxfile host="app.diagrams.net" modified="2023-10-23T10:45:38.741Z" agent="Mozilla/5.0 (Windows NT 10.0; Win64; x64) AppleWebKit/537.36 (KHTML, like Gecko) Chrome/118.0.0.0 Safari/537.36" etag="mUZQdKgk6dmJmXYAWmn5" version="22.0.6" type="google">
  <diagram name="Page-1" id="42Ml67-D2NMtp3iTDZL6">
    <mxGraphModel grid="1" page="1" gridSize="10" guides="1" tooltips="1" connect="1" arrows="1" fold="1" pageScale="1" pageWidth="827" pageHeight="1169" math="0" shadow="0">
      <root>
        <mxCell id="0" />
        <mxCell id="1" parent="0" />
        <mxCell id="eoWJQRC1UrhxIhkbecf0-36" style="edgeStyle=orthogonalEdgeStyle;rounded=0;orthogonalLoop=1;jettySize=auto;html=1;exitX=0;exitY=0.5;exitDx=0;exitDy=0;entryX=0.5;entryY=0;entryDx=0;entryDy=0;" edge="1" parent="1" source="eoWJQRC1UrhxIhkbecf0-1" target="eoWJQRC1UrhxIhkbecf0-2">
          <mxGeometry relative="1" as="geometry" />
        </mxCell>
        <mxCell id="eoWJQRC1UrhxIhkbecf0-37" style="edgeStyle=orthogonalEdgeStyle;rounded=0;orthogonalLoop=1;jettySize=auto;html=1;exitX=1;exitY=0.5;exitDx=0;exitDy=0;entryX=0.5;entryY=0;entryDx=0;entryDy=0;" edge="1" parent="1" source="eoWJQRC1UrhxIhkbecf0-1" target="eoWJQRC1UrhxIhkbecf0-5">
          <mxGeometry relative="1" as="geometry" />
        </mxCell>
        <mxCell id="eoWJQRC1UrhxIhkbecf0-1" value="" style="image;aspect=fixed;perimeter=ellipsePerimeter;html=1;align=center;shadow=0;dashed=0;spacingTop=3;image=img/lib/active_directory/folder.svg;" vertex="1" parent="1">
          <mxGeometry x="480" y="150" width="36.5" height="50" as="geometry" />
        </mxCell>
        <mxCell id="_5cJ_1aOw6HjbSMwb-Ic-2" style="edgeStyle=orthogonalEdgeStyle;rounded=0;orthogonalLoop=1;jettySize=auto;html=1;" edge="1" parent="1" source="eoWJQRC1UrhxIhkbecf0-2" target="eoWJQRC1UrhxIhkbecf0-20">
          <mxGeometry relative="1" as="geometry" />
        </mxCell>
        <mxCell id="_5cJ_1aOw6HjbSMwb-Ic-3" style="edgeStyle=orthogonalEdgeStyle;rounded=0;orthogonalLoop=1;jettySize=auto;html=1;exitX=0;exitY=0.5;exitDx=0;exitDy=0;entryX=0.5;entryY=0;entryDx=0;entryDy=0;" edge="1" parent="1" source="eoWJQRC1UrhxIhkbecf0-2" target="eoWJQRC1UrhxIhkbecf0-21">
          <mxGeometry relative="1" as="geometry" />
        </mxCell>
        <mxCell id="_5cJ_1aOw6HjbSMwb-Ic-4" style="edgeStyle=orthogonalEdgeStyle;rounded=0;orthogonalLoop=1;jettySize=auto;html=1;exitX=1;exitY=0.5;exitDx=0;exitDy=0;entryX=0.5;entryY=0;entryDx=0;entryDy=0;" edge="1" parent="1" source="eoWJQRC1UrhxIhkbecf0-2" target="eoWJQRC1UrhxIhkbecf0-22">
          <mxGeometry relative="1" as="geometry" />
        </mxCell>
        <mxCell id="eoWJQRC1UrhxIhkbecf0-2" value="" style="image;aspect=fixed;perimeter=ellipsePerimeter;html=1;align=center;shadow=0;dashed=0;spacingTop=3;image=img/lib/active_directory/folder.svg;" vertex="1" parent="1">
          <mxGeometry x="130" y="300" width="36.5" height="50" as="geometry" />
        </mxCell>
        <mxCell id="eoWJQRC1UrhxIhkbecf0-3" value="&lt;b&gt;&lt;font style=&quot;font-size: 18px;&quot;&gt;Lek-Ã¥-Bus&lt;/font&gt;&lt;/b&gt;" style="text;strokeColor=none;align=center;fillColor=none;html=1;verticalAlign=middle;whiteSpace=wrap;rounded=0;" vertex="1" parent="1">
          <mxGeometry x="453.25" y="120" width="90" height="30" as="geometry" />
        </mxCell>
        <mxCell id="_5cJ_1aOw6HjbSMwb-Ic-26" style="edgeStyle=orthogonalEdgeStyle;rounded=0;orthogonalLoop=1;jettySize=auto;html=1;exitX=0.5;exitY=1;exitDx=0;exitDy=0;entryX=0.5;entryY=0;entryDx=0;entryDy=0;" edge="1" parent="1" source="eoWJQRC1UrhxIhkbecf0-4" target="_5cJ_1aOw6HjbSMwb-Ic-22">
          <mxGeometry relative="1" as="geometry" />
        </mxCell>
        <mxCell id="eoWJQRC1UrhxIhkbecf0-4" value="" style="image;aspect=fixed;perimeter=ellipsePerimeter;html=1;align=center;shadow=0;dashed=0;spacingTop=3;image=img/lib/active_directory/folder.svg;" vertex="1" parent="1">
          <mxGeometry x="960" y="420" width="36.5" height="50" as="geometry" />
        </mxCell>
        <mxCell id="eoWJQRC1UrhxIhkbecf0-32" style="edgeStyle=orthogonalEdgeStyle;rounded=0;orthogonalLoop=1;jettySize=auto;html=1;exitX=0;exitY=0.5;exitDx=0;exitDy=0;entryX=0.5;entryY=0;entryDx=0;entryDy=0;" edge="1" parent="1" source="eoWJQRC1UrhxIhkbecf0-5" target="eoWJQRC1UrhxIhkbecf0-29">
          <mxGeometry relative="1" as="geometry" />
        </mxCell>
        <mxCell id="eoWJQRC1UrhxIhkbecf0-33" style="edgeStyle=orthogonalEdgeStyle;rounded=0;orthogonalLoop=1;jettySize=auto;html=1;exitX=1;exitY=0.5;exitDx=0;exitDy=0;entryX=0.5;entryY=0;entryDx=0;entryDy=0;" edge="1" parent="1" source="eoWJQRC1UrhxIhkbecf0-5" target="eoWJQRC1UrhxIhkbecf0-30">
          <mxGeometry relative="1" as="geometry" />
        </mxCell>
        <mxCell id="eoWJQRC1UrhxIhkbecf0-35" style="edgeStyle=orthogonalEdgeStyle;rounded=0;orthogonalLoop=1;jettySize=auto;html=1;exitX=0.5;exitY=1;exitDx=0;exitDy=0;entryX=0.5;entryY=0;entryDx=0;entryDy=0;" edge="1" parent="1" source="eoWJQRC1UrhxIhkbecf0-5" target="eoWJQRC1UrhxIhkbecf0-4">
          <mxGeometry relative="1" as="geometry" />
        </mxCell>
        <mxCell id="eoWJQRC1UrhxIhkbecf0-5" value="" style="image;aspect=fixed;perimeter=ellipsePerimeter;html=1;align=center;shadow=0;dashed=0;spacingTop=3;image=img/lib/active_directory/folder.svg;" vertex="1" parent="1">
          <mxGeometry x="960" y="300" width="36.5" height="50" as="geometry" />
        </mxCell>
        <mxCell id="eoWJQRC1UrhxIhkbecf0-6" value="&lt;b&gt;&lt;font style=&quot;font-size: 18px;&quot;&gt;Personal&lt;/font&gt;&lt;/b&gt;" style="text;strokeColor=none;align=center;fillColor=none;html=1;verticalAlign=middle;whiteSpace=wrap;rounded=0;" vertex="1" parent="1">
          <mxGeometry x="990" y="270" width="60" height="30" as="geometry" />
        </mxCell>
        <mxCell id="eoWJQRC1UrhxIhkbecf0-7" value="&lt;b&gt;&lt;font style=&quot;font-size: 18px;&quot;&gt;Klasser&lt;/font&gt;&lt;/b&gt;" style="text;strokeColor=none;align=center;fillColor=none;html=1;verticalAlign=middle;whiteSpace=wrap;rounded=0;" vertex="1" parent="1">
          <mxGeometry x="160" y="270" width="60" height="30" as="geometry" />
        </mxCell>
        <mxCell id="eoWJQRC1UrhxIhkbecf0-9" value="&lt;b&gt;&lt;font style=&quot;font-size: 18px;&quot;&gt;Chefer&lt;/font&gt;&lt;/b&gt;" style="text;strokeColor=none;align=center;fillColor=none;html=1;verticalAlign=middle;whiteSpace=wrap;rounded=0;" vertex="1" parent="1">
          <mxGeometry x="990" y="400" width="60" height="30" as="geometry" />
        </mxCell>
        <mxCell id="eoWJQRC1UrhxIhkbecf0-20" value="" style="image;aspect=fixed;perimeter=ellipsePerimeter;html=1;align=center;shadow=0;dashed=0;spacingTop=3;image=img/lib/active_directory/folder.svg;" vertex="1" parent="1">
          <mxGeometry x="130" y="510" width="36.5" height="50" as="geometry" />
        </mxCell>
        <mxCell id="_5cJ_1aOw6HjbSMwb-Ic-16" style="edgeStyle=orthogonalEdgeStyle;rounded=0;orthogonalLoop=1;jettySize=auto;html=1;exitX=0.5;exitY=1;exitDx=0;exitDy=0;entryX=0.5;entryY=0;entryDx=0;entryDy=0;" edge="1" parent="1" source="eoWJQRC1UrhxIhkbecf0-21" target="_5cJ_1aOw6HjbSMwb-Ic-12">
          <mxGeometry relative="1" as="geometry" />
        </mxCell>
        <mxCell id="_5cJ_1aOw6HjbSMwb-Ic-56" style="edgeStyle=orthogonalEdgeStyle;rounded=0;orthogonalLoop=1;jettySize=auto;html=1;exitX=0;exitY=0.5;exitDx=0;exitDy=0;entryX=0.5;entryY=0;entryDx=0;entryDy=0;" edge="1" parent="1" source="eoWJQRC1UrhxIhkbecf0-21" target="_5cJ_1aOw6HjbSMwb-Ic-55">
          <mxGeometry relative="1" as="geometry">
            <Array as="points">
              <mxPoint x="-240" y="535" />
              <mxPoint x="-240" y="653" />
            </Array>
          </mxGeometry>
        </mxCell>
        <mxCell id="_5cJ_1aOw6HjbSMwb-Ic-58" style="edgeStyle=orthogonalEdgeStyle;rounded=0;orthogonalLoop=1;jettySize=auto;html=1;exitX=1;exitY=0.5;exitDx=0;exitDy=0;entryX=0.5;entryY=0;entryDx=0;entryDy=0;" edge="1" parent="1" source="eoWJQRC1UrhxIhkbecf0-21" target="_5cJ_1aOw6HjbSMwb-Ic-57">
          <mxGeometry relative="1" as="geometry" />
        </mxCell>
        <mxCell id="eoWJQRC1UrhxIhkbecf0-21" value="" style="image;aspect=fixed;perimeter=ellipsePerimeter;html=1;align=center;shadow=0;dashed=0;spacingTop=3;image=img/lib/active_directory/folder.svg;" vertex="1" parent="1">
          <mxGeometry x="-140" y="510" width="36.5" height="50" as="geometry" />
        </mxCell>
        <mxCell id="eoWJQRC1UrhxIhkbecf0-22" value="" style="image;aspect=fixed;perimeter=ellipsePerimeter;html=1;align=center;shadow=0;dashed=0;spacingTop=3;image=img/lib/active_directory/folder.svg;" vertex="1" parent="1">
          <mxGeometry x="377" y="510" width="36.5" height="50" as="geometry" />
        </mxCell>
        <mxCell id="eoWJQRC1UrhxIhkbecf0-26" value="&lt;b&gt;&lt;font style=&quot;font-size: 18px;&quot;&gt;Klass 1&lt;/font&gt;&lt;/b&gt;" style="text;strokeColor=none;align=center;fillColor=none;html=1;verticalAlign=middle;whiteSpace=wrap;rounded=0;" vertex="1" parent="1">
          <mxGeometry x="-90" y="490" width="80" height="30" as="geometry" />
        </mxCell>
        <mxCell id="eoWJQRC1UrhxIhkbecf0-27" value="&lt;b&gt;&lt;font style=&quot;font-size: 18px;&quot;&gt;Klass 2&lt;/font&gt;&lt;/b&gt;" style="text;strokeColor=none;align=center;fillColor=none;html=1;verticalAlign=middle;whiteSpace=wrap;rounded=0;" vertex="1" parent="1">
          <mxGeometry x="150" y="490" width="83.5" height="30" as="geometry" />
        </mxCell>
        <mxCell id="eoWJQRC1UrhxIhkbecf0-28" value="&lt;b&gt;&lt;font style=&quot;font-size: 18px;&quot;&gt;Klass 3&lt;/font&gt;&lt;/b&gt;" style="text;strokeColor=none;align=center;fillColor=none;html=1;verticalAlign=middle;whiteSpace=wrap;rounded=0;" vertex="1" parent="1">
          <mxGeometry x="350" y="490" width="70" height="30" as="geometry" />
        </mxCell>
        <mxCell id="_5cJ_1aOw6HjbSMwb-Ic-27" style="edgeStyle=orthogonalEdgeStyle;rounded=0;orthogonalLoop=1;jettySize=auto;html=1;exitX=0.5;exitY=1;exitDx=0;exitDy=0;entryX=0.5;entryY=0;entryDx=0;entryDy=0;" edge="1" parent="1" source="eoWJQRC1UrhxIhkbecf0-29" target="_5cJ_1aOw6HjbSMwb-Ic-21">
          <mxGeometry relative="1" as="geometry" />
        </mxCell>
        <mxCell id="eoWJQRC1UrhxIhkbecf0-29" value="" style="image;aspect=fixed;perimeter=ellipsePerimeter;html=1;align=center;shadow=0;dashed=0;spacingTop=3;image=img/lib/active_directory/folder.svg;" vertex="1" parent="1">
          <mxGeometry x="726.75" y="420" width="36.5" height="50" as="geometry" />
        </mxCell>
        <mxCell id="_5cJ_1aOw6HjbSMwb-Ic-29" style="edgeStyle=orthogonalEdgeStyle;rounded=0;orthogonalLoop=1;jettySize=auto;html=1;exitX=0.5;exitY=1;exitDx=0;exitDy=0;entryX=0.5;entryY=0;entryDx=0;entryDy=0;" edge="1" parent="1" source="eoWJQRC1UrhxIhkbecf0-30" target="_5cJ_1aOw6HjbSMwb-Ic-23">
          <mxGeometry relative="1" as="geometry" />
        </mxCell>
        <mxCell id="_5cJ_1aOw6HjbSMwb-Ic-33" style="edgeStyle=orthogonalEdgeStyle;rounded=0;orthogonalLoop=1;jettySize=auto;html=1;exitX=1;exitY=0.5;exitDx=0;exitDy=0;entryX=0.5;entryY=0;entryDx=0;entryDy=0;" edge="1" parent="1" source="eoWJQRC1UrhxIhkbecf0-30" target="_5cJ_1aOw6HjbSMwb-Ic-32">
          <mxGeometry relative="1" as="geometry" />
        </mxCell>
        <mxCell id="eoWJQRC1UrhxIhkbecf0-30" value="" style="image;aspect=fixed;perimeter=ellipsePerimeter;html=1;align=center;shadow=0;dashed=0;spacingTop=3;image=img/lib/active_directory/folder.svg;" vertex="1" parent="1">
          <mxGeometry x="1131.75" y="420" width="36.5" height="50" as="geometry" />
        </mxCell>
        <mxCell id="eoWJQRC1UrhxIhkbecf0-31" value="&lt;b&gt;&lt;font style=&quot;font-size: 18px;&quot;&gt;LÃ¤rare&lt;/font&gt;&lt;/b&gt;" style="text;strokeColor=none;align=center;fillColor=none;html=1;verticalAlign=middle;whiteSpace=wrap;rounded=0;" vertex="1" parent="1">
          <mxGeometry x="763.25" y="400" width="60" height="30" as="geometry" />
        </mxCell>
        <mxCell id="eoWJQRC1UrhxIhkbecf0-34" value="&lt;b&gt;&lt;font style=&quot;font-size: 18px;&quot;&gt;Ãvriga&lt;/font&gt;&lt;/b&gt;" style="text;strokeColor=none;align=center;fillColor=none;html=1;verticalAlign=middle;whiteSpace=wrap;rounded=0;" vertex="1" parent="1">
          <mxGeometry x="1160" y="400" width="60" height="30" as="geometry" />
        </mxCell>
        <mxCell id="_5cJ_1aOw6HjbSMwb-Ic-8" value="&lt;span style=&quot;font-size: 18px;&quot;&gt;&lt;b&gt;Johan Ulveson&lt;/b&gt;&lt;/span&gt;" style="text;html=1;align=center;verticalAlign=middle;resizable=0;points=[];autosize=1;strokeColor=none;fillColor=none;" vertex="1" parent="1">
          <mxGeometry x="-315.75" y="703" width="150" height="40" as="geometry" />
        </mxCell>
        <mxCell id="_5cJ_1aOw6HjbSMwb-Ic-9" value="&lt;span style=&quot;font-size: 18px;&quot;&gt;&lt;b&gt;Petra Mede&lt;/b&gt;&lt;/span&gt;" style="text;html=1;align=center;verticalAlign=middle;resizable=0;points=[];autosize=1;strokeColor=none;fillColor=none;" vertex="1" parent="1">
          <mxGeometry x="-10" y="703" width="120" height="40" as="geometry" />
        </mxCell>
        <mxCell id="_5cJ_1aOw6HjbSMwb-Ic-12" value="" style="image;aspect=fixed;perimeter=ellipsePerimeter;html=1;align=center;shadow=0;dashed=0;spacingTop=3;image=img/lib/active_directory/user.svg;" vertex="1" parent="1">
          <mxGeometry x="-131" y="653" width="18.5" height="50" as="geometry" />
        </mxCell>
        <mxCell id="_5cJ_1aOw6HjbSMwb-Ic-13" value="" style="image;aspect=fixed;perimeter=ellipsePerimeter;html=1;align=center;shadow=0;dashed=0;spacingTop=3;image=img/lib/active_directory/user.svg;" vertex="1" parent="1">
          <mxGeometry x="141.5" y="653" width="18.5" height="50" as="geometry" />
        </mxCell>
        <mxCell id="_5cJ_1aOw6HjbSMwb-Ic-14" value="" style="image;aspect=fixed;perimeter=ellipsePerimeter;html=1;align=center;shadow=0;dashed=0;spacingTop=3;image=img/lib/active_directory/user.svg;" vertex="1" parent="1">
          <mxGeometry x="270" y="653" width="18.5" height="50" as="geometry" />
        </mxCell>
        <mxCell id="_5cJ_1aOw6HjbSMwb-Ic-15" value="&lt;span style=&quot;font-size: 18px;&quot;&gt;&lt;b&gt;Hannu Hanhi&lt;/b&gt;&lt;/span&gt;" style="text;html=1;align=center;verticalAlign=middle;resizable=0;points=[];autosize=1;strokeColor=none;fillColor=none;" vertex="1" parent="1">
          <mxGeometry x="368" y="810" width="130" height="40" as="geometry" />
        </mxCell>
        <mxCell id="_5cJ_1aOw6HjbSMwb-Ic-21" value="" style="image;aspect=fixed;perimeter=ellipsePerimeter;html=1;align=center;shadow=0;dashed=0;spacingTop=3;image=img/lib/active_directory/user.svg;" vertex="1" parent="1">
          <mxGeometry x="735.75" y="530" width="18.5" height="50" as="geometry" />
        </mxCell>
        <mxCell id="_5cJ_1aOw6HjbSMwb-Ic-22" value="" style="image;aspect=fixed;perimeter=ellipsePerimeter;html=1;align=center;shadow=0;dashed=0;spacingTop=3;image=img/lib/active_directory/user.svg;" vertex="1" parent="1">
          <mxGeometry x="969" y="540" width="18.5" height="50" as="geometry" />
        </mxCell>
        <mxCell id="_5cJ_1aOw6HjbSMwb-Ic-23" value="" style="image;aspect=fixed;perimeter=ellipsePerimeter;html=1;align=center;shadow=0;dashed=0;spacingTop=3;image=img/lib/active_directory/user.svg;" vertex="1" parent="1">
          <mxGeometry x="1140.75" y="540" width="18.5" height="50" as="geometry" />
        </mxCell>
        <mxCell id="_5cJ_1aOw6HjbSMwb-Ic-30" value="&lt;b&gt;&lt;font style=&quot;font-size: 18px;&quot;&gt;SYV, &lt;br&gt;Hilda Nettles&lt;br&gt;&lt;/font&gt;&lt;/b&gt;" style="text;html=1;align=center;verticalAlign=middle;resizable=0;points=[];autosize=1;strokeColor=none;fillColor=none;" vertex="1" parent="1">
          <mxGeometry x="1085" y="630" width="130" height="60" as="geometry" />
        </mxCell>
        <mxCell id="_5cJ_1aOw6HjbSMwb-Ic-32" value="" style="image;aspect=fixed;perimeter=ellipsePerimeter;html=1;align=center;shadow=0;dashed=0;spacingTop=3;image=img/lib/active_directory/user.svg;" vertex="1" parent="1">
          <mxGeometry x="1330" y="540" width="18.5" height="50" as="geometry" />
        </mxCell>
        <mxCell id="_5cJ_1aOw6HjbSMwb-Ic-34" value="&lt;b&gt;&lt;font style=&quot;font-size: 18px;&quot;&gt;AdministratÃ¶r, &lt;br&gt;Matilda JÃ¤rndotter&lt;/font&gt;&lt;/b&gt;" style="text;html=1;align=center;verticalAlign=middle;resizable=0;points=[];autosize=1;strokeColor=none;fillColor=none;rotation=0;" vertex="1" parent="1">
          <mxGeometry x="1249.25" y="640" width="180" height="60" as="geometry" />
        </mxCell>
        <mxCell id="_5cJ_1aOw6HjbSMwb-Ic-36" style="edgeStyle=orthogonalEdgeStyle;rounded=0;orthogonalLoop=1;jettySize=auto;html=1;exitX=0.5;exitY=1;exitDx=0;exitDy=0;entryX=0.502;entryY=-0.075;entryDx=0;entryDy=0;entryPerimeter=0;" edge="1" parent="1" source="_5cJ_1aOw6HjbSMwb-Ic-32" target="_5cJ_1aOw6HjbSMwb-Ic-34">
          <mxGeometry relative="1" as="geometry" />
        </mxCell>
        <mxCell id="_5cJ_1aOw6HjbSMwb-Ic-39" style="edgeStyle=orthogonalEdgeStyle;rounded=0;orthogonalLoop=1;jettySize=auto;html=1;exitX=0.5;exitY=1;exitDx=0;exitDy=0;entryX=0.5;entryY=0.017;entryDx=0;entryDy=0;entryPerimeter=0;" edge="1" parent="1" source="_5cJ_1aOw6HjbSMwb-Ic-23" target="_5cJ_1aOw6HjbSMwb-Ic-30">
          <mxGeometry relative="1" as="geometry" />
        </mxCell>
        <mxCell id="_5cJ_1aOw6HjbSMwb-Ic-40" value="&lt;b&gt;&lt;font style=&quot;font-size: 18px;&quot;&gt;Knobby Mouse&lt;/font&gt;&lt;/b&gt;" style="text;html=1;align=center;verticalAlign=middle;resizable=0;points=[];autosize=1;strokeColor=none;fillColor=none;" vertex="1" parent="1">
          <mxGeometry x="903.25" y="630" width="150" height="40" as="geometry" />
        </mxCell>
        <mxCell id="_5cJ_1aOw6HjbSMwb-Ic-41" style="edgeStyle=orthogonalEdgeStyle;rounded=0;orthogonalLoop=1;jettySize=auto;html=1;exitX=0.5;exitY=1;exitDx=0;exitDy=0;entryX=0.505;entryY=0;entryDx=0;entryDy=0;entryPerimeter=0;" edge="1" parent="1" source="_5cJ_1aOw6HjbSMwb-Ic-22" target="_5cJ_1aOw6HjbSMwb-Ic-40">
          <mxGeometry relative="1" as="geometry" />
        </mxCell>
        <mxCell id="_5cJ_1aOw6HjbSMwb-Ic-42" value="&lt;b&gt;&lt;font style=&quot;font-size: 18px;&quot;&gt;GÃ¶te Borg&lt;/font&gt;&lt;/b&gt;" style="text;html=1;align=center;verticalAlign=middle;resizable=0;points=[];autosize=1;strokeColor=none;fillColor=none;" vertex="1" parent="1">
          <mxGeometry x="690" y="610" width="110" height="40" as="geometry" />
        </mxCell>
        <mxCell id="_5cJ_1aOw6HjbSMwb-Ic-43" value="&lt;b&gt;&lt;font style=&quot;font-size: 18px;&quot;&gt;Inge Frisk&lt;/font&gt;&lt;/b&gt;" style="text;html=1;align=center;verticalAlign=middle;resizable=0;points=[];autosize=1;strokeColor=none;fillColor=none;" vertex="1" parent="1">
          <mxGeometry x="800" y="610" width="110" height="40" as="geometry" />
        </mxCell>
        <mxCell id="_5cJ_1aOw6HjbSMwb-Ic-44" value="&lt;b&gt;&lt;font style=&quot;font-size: 18px;&quot;&gt;Ove Rall&lt;/font&gt;&lt;/b&gt;" style="text;html=1;align=center;verticalAlign=middle;resizable=0;points=[];autosize=1;strokeColor=none;fillColor=none;" vertex="1" parent="1">
          <mxGeometry x="590" y="610" width="100" height="40" as="geometry" />
        </mxCell>
        <mxCell id="_5cJ_1aOw6HjbSMwb-Ic-45" style="edgeStyle=orthogonalEdgeStyle;rounded=0;orthogonalLoop=1;jettySize=auto;html=1;exitX=0.5;exitY=1;exitDx=0;exitDy=0;entryX=0.507;entryY=0;entryDx=0;entryDy=0;entryPerimeter=0;" edge="1" parent="1" source="_5cJ_1aOw6HjbSMwb-Ic-21" target="_5cJ_1aOw6HjbSMwb-Ic-42">
          <mxGeometry relative="1" as="geometry" />
        </mxCell>
        <mxCell id="_5cJ_1aOw6HjbSMwb-Ic-46" style="edgeStyle=orthogonalEdgeStyle;rounded=0;orthogonalLoop=1;jettySize=auto;html=1;exitX=0;exitY=0.5;exitDx=0;exitDy=0;entryX=0.51;entryY=-0.1;entryDx=0;entryDy=0;entryPerimeter=0;" edge="1" parent="1" source="_5cJ_1aOw6HjbSMwb-Ic-21" target="_5cJ_1aOw6HjbSMwb-Ic-44">
          <mxGeometry relative="1" as="geometry" />
        </mxCell>
        <mxCell id="_5cJ_1aOw6HjbSMwb-Ic-47" style="edgeStyle=orthogonalEdgeStyle;rounded=0;orthogonalLoop=1;jettySize=auto;html=1;exitX=1;exitY=0.5;exitDx=0;exitDy=0;entryX=0.473;entryY=-0.025;entryDx=0;entryDy=0;entryPerimeter=0;" edge="1" parent="1" source="_5cJ_1aOw6HjbSMwb-Ic-21" target="_5cJ_1aOw6HjbSMwb-Ic-43">
          <mxGeometry relative="1" as="geometry" />
        </mxCell>
        <mxCell id="_5cJ_1aOw6HjbSMwb-Ic-48" value="&lt;span style=&quot;font-size: 18px;&quot;&gt;&lt;b&gt;Aku Ankka&lt;/b&gt;&lt;/span&gt;" style="text;html=1;align=center;verticalAlign=middle;resizable=0;points=[];autosize=1;strokeColor=none;fillColor=none;" vertex="1" parent="1">
          <mxGeometry x="340" y="703" width="120" height="40" as="geometry" />
        </mxCell>
        <mxCell id="_5cJ_1aOw6HjbSMwb-Ic-50" value="&lt;span style=&quot;font-size: 18px;&quot;&gt;&lt;b&gt;Mikki Hiiri&lt;/b&gt;&lt;/span&gt;" style="text;html=1;align=center;verticalAlign=middle;resizable=0;points=[];autosize=1;strokeColor=none;fillColor=none;" vertex="1" parent="1">
          <mxGeometry x="240" y="703" width="110" height="40" as="geometry" />
        </mxCell>
        <mxCell id="_5cJ_1aOw6HjbSMwb-Ic-51" value="&lt;font style=&quot;font-size: 18px;&quot;&gt;&lt;b&gt;Sissela Kyle&lt;/b&gt;&lt;/font&gt;" style="text;html=1;align=center;verticalAlign=middle;resizable=0;points=[];autosize=1;strokeColor=none;fillColor=none;" vertex="1" parent="1">
          <mxGeometry x="100" y="703" width="130" height="40" as="geometry" />
        </mxCell>
        <mxCell id="_5cJ_1aOw6HjbSMwb-Ic-52" value="&lt;font style=&quot;font-size: 18px;&quot;&gt;&lt;b&gt;Pia Johansson&lt;/b&gt;&lt;/font&gt;" style="text;html=1;align=center;verticalAlign=middle;resizable=0;points=[];autosize=1;strokeColor=none;fillColor=none;" vertex="1" parent="1">
          <mxGeometry x="90" y="810" width="150" height="40" as="geometry" />
        </mxCell>
        <mxCell id="_5cJ_1aOw6HjbSMwb-Ic-53" value="&lt;font style=&quot;font-size: 18px;&quot;&gt;&lt;b&gt;Henrik Hjelt&lt;/b&gt;&lt;/font&gt;" style="text;html=1;align=center;verticalAlign=middle;resizable=0;points=[];autosize=1;strokeColor=none;fillColor=none;" vertex="1" parent="1">
          <mxGeometry x="-170" y="703" width="120" height="40" as="geometry" />
        </mxCell>
        <mxCell id="_5cJ_1aOw6HjbSMwb-Ic-54" value="&lt;font style=&quot;font-size: 18px;&quot;&gt;&lt;b&gt;Henrik Dorsin&lt;/b&gt;&lt;/font&gt;" style="text;html=1;align=center;verticalAlign=middle;resizable=0;points=[];autosize=1;strokeColor=none;fillColor=none;" vertex="1" parent="1">
          <mxGeometry x="-170" y="810" width="140" height="40" as="geometry" />
        </mxCell>
        <mxCell id="_5cJ_1aOw6HjbSMwb-Ic-55" value="" style="image;aspect=fixed;perimeter=ellipsePerimeter;html=1;align=center;shadow=0;dashed=0;spacingTop=3;image=img/lib/active_directory/user.svg;" vertex="1" parent="1">
          <mxGeometry x="-250" y="653" width="18.5" height="50" as="geometry" />
        </mxCell>
        <mxCell id="_5cJ_1aOw6HjbSMwb-Ic-57" value="" style="image;aspect=fixed;perimeter=ellipsePerimeter;html=1;align=center;shadow=0;dashed=0;spacingTop=3;image=img/lib/active_directory/user.svg;" vertex="1" parent="1">
          <mxGeometry x="-20" y="653" width="18.5" height="50" as="geometry" />
        </mxCell>
        <mxCell id="_5cJ_1aOw6HjbSMwb-Ic-71" value="" style="image;aspect=fixed;perimeter=ellipsePerimeter;html=1;align=center;shadow=0;dashed=0;spacingTop=3;image=img/lib/active_directory/user.svg;" vertex="1" parent="1">
          <mxGeometry x="20" y="653" width="18.5" height="50" as="geometry" />
        </mxCell>
        <mxCell id="_5cJ_1aOw6HjbSMwb-Ic-72" value="" style="image;aspect=fixed;perimeter=ellipsePerimeter;html=1;align=center;shadow=0;dashed=0;spacingTop=3;image=img/lib/active_directory/user.svg;" vertex="1" parent="1">
          <mxGeometry x="240" y="653" width="18.5" height="50" as="geometry" />
        </mxCell>
        <mxCell id="_5cJ_1aOw6HjbSMwb-Ic-73" style="edgeStyle=orthogonalEdgeStyle;rounded=0;orthogonalLoop=1;jettySize=auto;html=1;exitX=1;exitY=0.5;exitDx=0;exitDy=0;entryX=0.5;entryY=0;entryDx=0;entryDy=0;" edge="1" parent="1">
          <mxGeometry relative="1" as="geometry">
            <mxPoint x="161.5" y="535" as="sourcePoint" />
            <mxPoint x="253.5" y="653" as="targetPoint" />
          </mxGeometry>
        </mxCell>
        <mxCell id="_5cJ_1aOw6HjbSMwb-Ic-74" style="edgeStyle=orthogonalEdgeStyle;rounded=0;orthogonalLoop=1;jettySize=auto;html=1;exitX=0;exitY=0.5;exitDx=0;exitDy=0;entryX=0.5;entryY=0;entryDx=0;entryDy=0;" edge="1" parent="1">
          <mxGeometry relative="1" as="geometry">
            <mxPoint x="130" y="535" as="sourcePoint" />
            <mxPoint x="29" y="653" as="targetPoint" />
            <Array as="points">
              <mxPoint x="30" y="535" />
              <mxPoint x="30" y="653" />
            </Array>
          </mxGeometry>
        </mxCell>
        <mxCell id="_5cJ_1aOw6HjbSMwb-Ic-75" style="edgeStyle=orthogonalEdgeStyle;rounded=0;orthogonalLoop=1;jettySize=auto;html=1;exitX=0.5;exitY=1;exitDx=0;exitDy=0;entryX=0.5;entryY=0;entryDx=0;entryDy=0;" edge="1" parent="1">
          <mxGeometry relative="1" as="geometry">
            <mxPoint x="150" y="565" as="sourcePoint" />
            <mxPoint x="150" y="658" as="targetPoint" />
            <Array as="points">
              <mxPoint x="150" y="595" />
              <mxPoint x="150" y="595" />
            </Array>
          </mxGeometry>
        </mxCell>
        <mxCell id="_5cJ_1aOw6HjbSMwb-Ic-78" style="edgeStyle=orthogonalEdgeStyle;rounded=0;orthogonalLoop=1;jettySize=auto;html=1;entryX=1;entryY=0.6;entryDx=0;entryDy=0;entryPerimeter=0;" edge="1" parent="1" source="_5cJ_1aOw6HjbSMwb-Ic-57" target="_5cJ_1aOw6HjbSMwb-Ic-54">
          <mxGeometry relative="1" as="geometry">
            <Array as="points">
              <mxPoint x="-11" y="757" />
              <mxPoint x="-10" y="757" />
              <mxPoint x="-10" y="834" />
            </Array>
          </mxGeometry>
        </mxCell>
        <mxCell id="_5cJ_1aOw6HjbSMwb-Ic-84" style="edgeStyle=orthogonalEdgeStyle;rounded=0;orthogonalLoop=1;jettySize=auto;html=1;exitX=0.5;exitY=1;exitDx=0;exitDy=0;entryX=0.5;entryY=0;entryDx=0;entryDy=0;" edge="1" parent="1">
          <mxGeometry relative="1" as="geometry">
            <mxPoint x="394.75" y="560" as="sourcePoint" />
            <mxPoint x="394.75" y="653" as="targetPoint" />
            <Array as="points">
              <mxPoint x="394.75" y="590" />
              <mxPoint x="394.75" y="590" />
            </Array>
          </mxGeometry>
        </mxCell>
        <mxCell id="_5cJ_1aOw6HjbSMwb-Ic-85" style="edgeStyle=orthogonalEdgeStyle;rounded=0;orthogonalLoop=1;jettySize=auto;html=1;exitX=0;exitY=0.5;exitDx=0;exitDy=0;entryX=0.5;entryY=0;entryDx=0;entryDy=0;" edge="1" parent="1">
          <mxGeometry relative="1" as="geometry">
            <mxPoint x="377" y="535" as="sourcePoint" />
            <mxPoint x="276" y="653" as="targetPoint" />
            <Array as="points">
              <mxPoint x="277" y="535" />
              <mxPoint x="277" y="653" />
            </Array>
          </mxGeometry>
        </mxCell>
        <mxCell id="_5cJ_1aOw6HjbSMwb-Ic-87" value="" style="image;aspect=fixed;perimeter=ellipsePerimeter;html=1;align=center;shadow=0;dashed=0;spacingTop=3;image=img/lib/active_directory/user.svg;" vertex="1" parent="1">
          <mxGeometry x="386" y="653" width="18.5" height="50" as="geometry" />
        </mxCell>
        <mxCell id="_5cJ_1aOw6HjbSMwb-Ic-88" style="edgeStyle=orthogonalEdgeStyle;rounded=0;orthogonalLoop=1;jettySize=auto;html=1;exitX=1;exitY=0.5;exitDx=0;exitDy=0;entryX=0.5;entryY=0;entryDx=0;entryDy=0;" edge="1" parent="1">
          <mxGeometry relative="1" as="geometry">
            <mxPoint x="414" y="535" as="sourcePoint" />
            <mxPoint x="506" y="653" as="targetPoint" />
          </mxGeometry>
        </mxCell>
        <mxCell id="_5cJ_1aOw6HjbSMwb-Ic-89" value="" style="image;aspect=fixed;perimeter=ellipsePerimeter;html=1;align=center;shadow=0;dashed=0;spacingTop=3;image=img/lib/active_directory/user.svg;" vertex="1" parent="1">
          <mxGeometry x="498" y="653" width="18.5" height="50" as="geometry" />
        </mxCell>
        <mxCell id="_5cJ_1aOw6HjbSMwb-Ic-90" style="edgeStyle=orthogonalEdgeStyle;rounded=0;orthogonalLoop=1;jettySize=auto;html=1;entryX=1;entryY=0.6;entryDx=0;entryDy=0;entryPerimeter=0;" edge="1" parent="1">
          <mxGeometry relative="1" as="geometry">
            <mxPoint x="515.5" y="703" as="sourcePoint" />
            <mxPoint x="496.5" y="834" as="targetPoint" />
            <Array as="points">
              <mxPoint x="515.5" y="757" />
              <mxPoint x="516.5" y="757" />
              <mxPoint x="516.5" y="834" />
            </Array>
          </mxGeometry>
        </mxCell>
        <mxCell id="_5cJ_1aOw6HjbSMwb-Ic-91" style="edgeStyle=orthogonalEdgeStyle;rounded=0;orthogonalLoop=1;jettySize=auto;html=1;entryX=1;entryY=0.6;entryDx=0;entryDy=0;entryPerimeter=0;" edge="1" parent="1">
          <mxGeometry relative="1" as="geometry">
            <mxPoint x="252.5" y="703" as="sourcePoint" />
            <mxPoint x="233.5" y="834" as="targetPoint" />
            <Array as="points">
              <mxPoint x="252.5" y="757" />
              <mxPoint x="253.5" y="757" />
              <mxPoint x="253.5" y="834" />
            </Array>
          </mxGeometry>
        </mxCell>
      </root>
    </mxGraphModel>
  </diagram>
</mxfile>
